Coordinates
version=1
nRows=7
nColumns=40
inDegrees=yes

Units are S.I. units (second, meters, Newtons, ...)
If the header above contains a line with 'inDegrees', this indicates whether rotational values are in degrees (yes) or radians (no).

endheader
time	pelvis_tilt	pelvis_list	pelvis_rotation	pelvis_tx	pelvis_ty	pelvis_tz	hip_flexion_r	hip_adduction_r	hip_rotation_r	knee_angle_r	knee_angle_r_beta	ankle_angle_r	subtalar_angle_r	mtp_angle_r	hip_flexion_l	hip_adduction_l	hip_rotation_l	knee_angle_l	knee_angle_l_beta	ankle_angle_l	subtalar_angle_l	mtp_angle_l	lumbar_extension	lumbar_bending	lumbar_rotation	arm_flex_r	arm_add_r	arm_rot_r	elbow_flex_r	pro_sup_r	wrist_flex_r	wrist_dev_r	arm_flex_l	arm_add_l	arm_rot_l	elbow_flex_l	pro_sup_l	wrist_flex_l	wrist_dev_l
      9.97500000	    -35.93752626	      9.27994618	     89.98654618	      0.44802267	      0.85412141	     -0.66051302	     23.66513527	     -2.17067729	     39.96373520	     47.13189776	      0.82260680	    -16.47746655	      0.00000000	      0.00000000	    -29.97013138	     29.95996849	    -39.97846572	      0.06495722	      0.00113372	     -7.61994911	      0.00000000	      0.00000000	     89.98044493	    -86.76358292	    -89.98153244	    -44.50270682	    -32.98370258	     89.81746065	      0.14004363	      1.84363408	      0.00000000	      0.00000000	     35.46053429	     47.80969237	     56.36194542	      6.82749709	     87.53600656	      0.00000000	      0.00000000
      9.98000000	    -35.86760091	      9.26775651	     89.98635323	      0.44798610	      0.85343119	     -0.66057540	     23.75715106	     -2.03510718	     39.96347731	     47.33158142	      0.82609194	    -16.37055694	      0.00000000	      0.00000000	    -29.97048502	     29.95691677	    -39.97851793	      0.06304015	      0.00110026	     -7.16767410	      0.00000000	      0.00000000	     89.98054357	    -86.72372361	    -89.98159187	    -44.46920544	    -33.08122022	     89.81771360	      0.14056332	      1.91221382	      0.00000000	      0.00000000	     35.46712355	     47.80818557	     56.48415211	      6.90865196	     87.39944661	      0.00000000	      0.00000000
      9.98500000	    -35.80104735	      9.24759906	     89.98616417	      0.44795051	      0.85272705	     -0.66072575	     23.84452306	     -1.91375726	     39.96329073	     47.50993428	      0.82920478	    -16.15117479	      0.00000000	      0.00000000	    -29.97073846	     29.95338052	    -39.97857131	      0.06115816	      0.00106741	     -6.69133341	      0.00000000	      0.00000000	     89.98062406	    -86.66570536	    -89.98164071	    -44.41844875	    -33.17661010	     89.81707144	      0.14180539	      1.84426149	      0.00000000	      0.00000000	     35.52565454	     47.87427321	     56.62195720	      6.85087494	     87.53129876	      0.00000000	      0.00000000
      9.99000000	    -35.73021743	      9.23473582	     89.98595784	      0.44790009	      0.85202546	     -0.66078447	     23.94594072	     -1.77136713	     39.96304559	     47.72879538	      0.83302463	    -16.06015975	      0.00000000	      0.00000000	    -29.97109640	     29.94923146	    -39.97862034	      0.05950283	      0.00103852	     -6.22801983	      0.00000000	      0.00000000	     89.98072966	    -86.62750652	    -89.98170544	    -44.38388979	    -33.28429526	     89.81744250	      0.14225477	      1.93802991	      0.00000000	      0.00000000	     35.52289472	     47.84961129	     56.75637258	      6.92477853	     87.37968981	      0.00000000	      0.00000000
      9.99500000	    -35.66195970	      9.22190197	     89.98577664	      0.44786059	      0.85130044	     -0.66087317	     24.04416025	     -1.63712671	     39.96280172	     47.93568947	      0.83663561	    -15.93469009	      0.00000000	      0.00000000	    -29.97144397	     29.94461829	    -39.97868070	      0.05810584	      0.00101414	     -5.76167761	      0.00000000	      0.00000000	     89.98083065	    -86.58631526	    -89.98176743	    -44.35056107	    -33.39261708	     89.81559188	      0.14283792	      2.01267841	      0.00000000	      0.00000000	     35.54751143	     47.86794367	     56.90857701	      6.99945538	     87.25855699	      0.00000000	      0.00000000
     10.00000000	    -35.59124448	      9.20027903	     89.98556030	      0.44777144	      0.85056488	     -0.66103962	     24.14778264	     -1.50276083	     39.96251586	     48.15655668	      0.84049047	    -15.78982075	      0.00000000	      0.00000000	    -29.97165309	     29.93883217	    -39.97873281	      0.05645138	      0.00098526	     -5.28524157	      0.00000000	      0.00000000	     89.98094082	    -86.53610406	    -89.98183897	    -44.27147141	    -33.46891926	     89.81562179	      0.14390245	      2.00705613	      0.00000000	      0.00000000	     35.56512791	     47.86526367	     57.04883871	      7.04922888	     87.22165726	      0.00000000	      0.00000000
     10.00500000	    -35.51686722	      9.18865948	     89.98531987	      0.44774324	      0.84988059	     -0.66111189	     24.23081016	     -1.36608022	     39.96233830	     48.34108812	      0.84371115	    -15.65039952	      0.00000000	      0.00000000	    -29.97199670	     29.93062452	    -39.97878198	      0.05488186	      0.00095787	     -4.82290707	      0.00000000	      0.00000000	     89.98102944	    -86.49138651	    -89.98188643	    -44.22707651	    -33.56986510	     89.81595007	      0.14499343	      1.95238586	      0.00000000	      0.00000000	     35.60209802	     47.90321325	     57.21785938	      7.05773768	     87.25598633	      0.00000000	      0.00000000
